<svg xmlns="http://www.w3.org/2000/svg" viewBox="0 0 32 32"><g data-name="Layer 55" fill="#000"><path d="M28 25h-3a1 1 0 0 1 0-2h3a1 1 0 0 0 1-1V10a1 1 0 0 0-1-1H4a1 1 0 0 0-1 1v12a1 1 0 0 0 1 1h3a1 1 0 0 1 0 2H4a3 3 0 0 1-3-3V10a3 3 0 0 1 3-3h24a3 3 0 0 1 3 3v12a3 3 0 0 1-3 3Z" class="cls-1"/><path d="M25 31H7a1 1 0 0 1-1-1V20a1 1 0 0 1 1-1h18a1 1 0 0 1 1 1v10a1 1 0 0 1-1 1ZM8 29h16v-8H8ZM25 9a1 1 0 0 1-1-1V3H8v5a1 1 0 0 1-2 0V2a1 1 0 0 1 1-1h18a1 1 0 0 1 1 1v6a1 1 0 0 1-1 1ZM24 11h2v2h-2zM18 11h4v2h-4z" class="cls-1"/></g></svg>